<mxfile host="app.diagrams.net" modified="2021-07-18T18:45:58.405Z" agent="5.0 (Windows NT 10.0; Win64; x64) AppleWebKit/537.36 (KHTML, like Gecko) Chrome/91.0.4472.124 Safari/537.36" etag="qw_qv7RQq5NfVqydeke2" version="14.9.0" type="github">
  <diagram id="jggIG5HzDZcVWlFjOvo3" name="Page-1">
    <mxGraphModel dx="868" dy="460" grid="0" gridSize="10" guides="1" tooltips="1" connect="1" arrows="1" fold="1" page="0" pageScale="1" pageWidth="827" pageHeight="1169" math="0" shadow="0">
      <root>
        <mxCell id="0" />
        <mxCell id="1" parent="0" />
        <mxCell id="3FdpQByTThzucl-8OLSG-18" style="edgeStyle=orthogonalEdgeStyle;rounded=0;orthogonalLoop=1;jettySize=auto;html=1;entryX=0.5;entryY=1;entryDx=0;entryDy=0;" edge="1" parent="1" source="3FdpQByTThzucl-8OLSG-13" target="3FdpQByTThzucl-8OLSG-17">
          <mxGeometry relative="1" as="geometry" />
        </mxCell>
        <mxCell id="3FdpQByTThzucl-8OLSG-12" style="edgeStyle=orthogonalEdgeStyle;rounded=0;orthogonalLoop=1;jettySize=auto;html=1;exitX=0.5;exitY=1;exitDx=0;exitDy=0;entryX=0.5;entryY=0;entryDx=0;entryDy=0;" edge="1" parent="1" source="3FdpQByTThzucl-8OLSG-1" target="3FdpQByTThzucl-8OLSG-3">
          <mxGeometry relative="1" as="geometry" />
        </mxCell>
        <mxCell id="3FdpQByTThzucl-8OLSG-1" value="Service Layer" style="rounded=0;whiteSpace=wrap;html=1;" vertex="1" parent="1">
          <mxGeometry x="160" y="200" width="390" height="60" as="geometry" />
        </mxCell>
        <mxCell id="3FdpQByTThzucl-8OLSG-11" style="edgeStyle=orthogonalEdgeStyle;rounded=0;orthogonalLoop=1;jettySize=auto;html=1;exitX=0.5;exitY=1;exitDx=0;exitDy=0;entryX=0.5;entryY=0;entryDx=0;entryDy=0;" edge="1" parent="1" source="3FdpQByTThzucl-8OLSG-2" target="3FdpQByTThzucl-8OLSG-1">
          <mxGeometry relative="1" as="geometry" />
        </mxCell>
        <mxCell id="3FdpQByTThzucl-8OLSG-2" value="API - Controller" style="rounded=0;whiteSpace=wrap;html=1;" vertex="1" parent="1">
          <mxGeometry x="160" y="120" width="390" height="60" as="geometry" />
        </mxCell>
        <mxCell id="3FdpQByTThzucl-8OLSG-14" value="" style="edgeStyle=orthogonalEdgeStyle;rounded=0;orthogonalLoop=1;jettySize=auto;html=1;" edge="1" parent="1" source="3FdpQByTThzucl-8OLSG-3" target="3FdpQByTThzucl-8OLSG-13">
          <mxGeometry relative="1" as="geometry" />
        </mxCell>
        <mxCell id="3FdpQByTThzucl-8OLSG-3" value="Data Access Layer - DAO" style="rounded=0;whiteSpace=wrap;html=1;" vertex="1" parent="1">
          <mxGeometry x="160" y="280" width="390" height="60" as="geometry" />
        </mxCell>
        <mxCell id="3FdpQByTThzucl-8OLSG-4" value="Data Base" style="rounded=1;whiteSpace=wrap;html=1;" vertex="1" parent="1">
          <mxGeometry x="170" y="270" width="110" height="30" as="geometry" />
        </mxCell>
        <mxCell id="3FdpQByTThzucl-8OLSG-5" value="Business Logic" style="rounded=1;whiteSpace=wrap;html=1;" vertex="1" parent="1">
          <mxGeometry x="170" y="190" width="110" height="30" as="geometry" />
        </mxCell>
        <mxCell id="3FdpQByTThzucl-8OLSG-6" value="HTTP : GET, POST, PUT, DELETE" style="rounded=1;whiteSpace=wrap;html=1;" vertex="1" parent="1">
          <mxGeometry x="170" y="110" width="110" height="30" as="geometry" />
        </mxCell>
        <mxCell id="3FdpQByTThzucl-8OLSG-8" value="" style="edgeStyle=orthogonalEdgeStyle;rounded=0;orthogonalLoop=1;jettySize=auto;html=1;" edge="1" parent="1" source="3FdpQByTThzucl-8OLSG-7" target="3FdpQByTThzucl-8OLSG-2">
          <mxGeometry relative="1" as="geometry" />
        </mxCell>
        <mxCell id="3FdpQByTThzucl-8OLSG-7" value="Request" style="rounded=0;whiteSpace=wrap;html=1;fillColor=#dae8fc;strokeColor=#6c8ebf;" vertex="1" parent="1">
          <mxGeometry x="297.5" y="60" width="115" height="30" as="geometry" />
        </mxCell>
        <mxCell id="3FdpQByTThzucl-8OLSG-13" value="DB" style="shape=cylinder3;whiteSpace=wrap;html=1;boundedLbl=1;backgroundOutline=1;size=15;" vertex="1" parent="1">
          <mxGeometry x="325" y="370" width="60" height="80" as="geometry" />
        </mxCell>
        <mxCell id="3FdpQByTThzucl-8OLSG-17" value="Response" style="rounded=0;whiteSpace=wrap;html=1;fillColor=#d5e8d4;strokeColor=#82b366;" vertex="1" parent="1">
          <mxGeometry x="430" y="30" width="115" height="30" as="geometry" />
        </mxCell>
        <mxCell id="3FdpQByTThzucl-8OLSG-19" value="" style="shape=actor;whiteSpace=wrap;html=1;" vertex="1" parent="1">
          <mxGeometry x="340" y="20" width="35" height="30" as="geometry" />
        </mxCell>
      </root>
    </mxGraphModel>
  </diagram>
</mxfile>
